<svg height="511pt" viewBox="0 0 511.99982 511" width="511pt" xmlns="http://www.w3.org/2000/svg"><path d="m356.878906 73.847656c1.929688 0 3.855469-.722656 5.304688-2.171875l8.074218-8.078125c2.929688-2.929687 2.929688-7.679687 0-10.605468-2.925781-2.929688-7.675781-2.929688-10.605468 0l-8.078125 8.074218c-2.929688 2.929688-2.929688 7.679688 0 10.609375 1.453125 1.449219 3.378906 2.171875 5.304687 2.171875zm0 0"/><path d="m446.128906 163.082031c1.914063.003907 3.84375-.695312 5.304688-2.15625l8.074218-8.078125c2.929688-2.929687 2.929688-7.679687 0-10.605468-2.925781-2.929688-7.675781-2.929688-10.605468 0l-8.078125 8.074218c-2.929688 2.929688-2.929688 7.679688 0 10.609375 1.414062 1.414063 3.351562 2.152344 5.304687 2.15625zm0 0"/><path d="m411.777344 128.992188c4.691406 0 9.140625-2.804688 8.785156-8.046876-.277344-4.132812-3.855469-7.261718-7.984375-6.980468-3.644531.242187-7.320313-1.199219-10.082031-3.960938-2.761719-2.761718-4.207032-6.4375-3.960938-10.082031.277344-4.132813-2.847656-7.707031-6.980468-7.984375-4.132813-.269531-7.710938 2.847656-7.988282 6.980469-.535156 7.964843 2.5 15.871093 8.324219 21.695312 5.382813 5.382813 12.542969 8.378907 19.886719 8.378907zm0 0"/><path d="m284.363281 155.375c-4.085937-.683594-7.953125 2.074219-8.636719 6.15625-.683593 4.085938 2.070313 7.953125 6.15625 8.640625 15.195313 2.546875 28.988282 9.652344 39.890626 20.554687 28.425781 28.425782 28.398437 75.894532 0 104.296876-28.753907 28.753906-75.542969 28.753906-104.296876 0-28.417968-28.421876-28.386718-75.90625 0-104.296876 10.246094-10.246093 23.148438-17.191406 37.3125-20.082031 4.058594-.832031 6.675782-4.792969 5.847657-8.851562-.828125-4.058594-4.792969-6.675781-8.851563-5.847657-17.050781 3.484376-32.582031 11.84375-44.914062 24.175782-34.210938 34.207031-34.175782 91.332031 0 125.507812 34.152344 34.152344 91.390625 34.117188 125.507812 0 34.214844-34.214844 34.179688-91.332031 0-125.511718-13.121094-13.121094-29.722656-21.675782-48.015625-24.742188zm0 0"/><path d="m215.773438 242.875c0 13.910156 5.210937 27.816406 15.625 38.226562 20.835937 20.835938 55.636718 20.820313 76.457031 0 20.84375-20.84375 20.824219-55.632812 0-76.457031-20.847657-20.84375-55.632813-20.824219-76.457031 0-10.421876 10.421875-15.628907 24.328125-15.625 38.230469zm53.851562-38.90625c10.050781 0 20.097656 3.761719 27.621094 11.285156 15.0625 15.0625 15.046875 40.195313 0 55.242188-15.039063 15.039062-40.222656 15.015625-55.242188 0-15.0625-15.0625-15.046875-40.191406 0-55.242188 7.527344-7.527344 17.574219-11.289062 27.621094-11.285156zm0 0"/><path d="m495.492188 38.308594c-3.832032-9.707032-11.59375-17.46875-21.304688-21.300782-15.644531-6.164062-48.234375-16.507812-90.710938-16.507812-50.835937 0-100.792968 14.402344-148.484374 42.804688-8.773438 5.222656-17.480469 10.941406-26.105469 17.132812-7.054688-1.886719-23.371094-5.546875-43.964844-5.546875-24.183594 0-46.375 4.984375-65.960937 14.820313-22.222657 11.15625-27.050782 41.695312-9.535157 59.214843l24.847657 24.84375c-14.539063 19.769531-27.035157 40.589844-37.335938 62.3125-6.644531 14.027344-12.464844 28.582031-17.289062 43.257813-4.722657 14.332031-2.164063 29.738281 6.578124 41.738281-25.933593 27.257813-45.265624 58.644531-56.074218 91.164063-12.046875 36.253906-13.398438 73.855468-3.910156 108.746093.695312 2.566407 2.703124 4.570313 5.269531 5.269531 32.011719 8.710938 65.804687 8.097657 97.75-.59375 3.996093-1.089843 6.355469-5.210937 5.265625-9.207031-1.085938-4-5.207032-6.355469-9.207032-5.269531-29.070312 7.914062-57.875 8.472656-85.6875 1.675781-7.628906-31.191406-6.035156-63.425781 4.753907-95.890625 10.023437-30.160156 27.953125-59.363281 52.042969-84.863281l33.453124 33.453125c-.160156.15625-.324218.320312-.480468.476562-29.835938 29.835938-45.925782 64.746094-43.042969 93.386719.355469 3.550781 3.164063 6.355469 6.710937 6.714844 35.4375 3.570313 69.5-19.152344 93.390626-43.042969.15625-.15625.316406-.324218.476562-.484375l33.453125 33.453125c-20.808594 19.691406-43.683594 35.019532-68.082031 45.609375-3.800782 1.648438-5.542969 6.066407-3.894532 9.867188 1.648438 3.800781 6.066407 5.542969 9.867188 3.894531 26.300781-11.414062 50.878906-27.949219 73.160156-49.183594 7.921875 5.714844 17.550782 8.90625 27.332032 8.90625 4.894531 0 9.734374-.777344 14.382812-2.308594 14.679688-4.828124 29.234375-10.644531 43.265625-17.292968 21.71875-10.296875 42.539063-22.792969 62.308594-37.332032 0 0 24.835937 24.835938 24.84375 24.84375 17.5625 17.5625 48.078125 12.648438 59.214843-9.535156 14.242188-28.359375 15.71875-57.707031 14.449219-77.335937-.714843-11.046875-2.355469-20.257813-3.605469-26.035157-.597656-2.753906-1.105468-4.894531-1.550781-6.582031 6.183594-8.613281 11.894531-17.3125 17.113281-26.078125 28.453126-47.777344 42.855469-97.824218 42.804688-148.757812-.042969-42.34375-10.363281-74.835938-16.507812-90.4375zm-112.015626-22.808594c39.996094 0 70.554688 9.691406 85.207032 15.464844 5.855468 2.308594 10.542968 6.992187 12.851562 12.847656 5.757813 14.609375 15.421875 45.078125 15.464844 84.953125.046875 45.230469-12.011719 89.820313-35.867188 132.683594l-210.082031-210.082031c42.78125-23.804688 87.285157-35.867188 132.425781-35.867188zm-260.027343 126.230469s-23.390625-23.390625-23.414063-23.414063c-10.417968-10.421875-7.527344-28.578125 5.660156-35.203125 17.476563-8.773437 37.402344-13.222656 59.230469-13.222656 11.019531 0 20.765625 1.167969 28.1875 2.46875-15.425781 12.269531-29.972656 25.601563-43.664062 39.769531-9.132813 9.449219-17.8125 19.324219-26 29.601563zm32.40625 250.761719c-24.046875 24.042968-51.921875 38.546874-74.824219 38.980468.429688-23.015625 14.617188-50.464844 38.976562-74.824218.160157-.160157.320313-.320313.484376-.480469l35.839843 35.84375c-.160156.160156-.320312.320312-.476562.480469zm92.613281 46.113281c-11.175781 3.675781-23.792969.53125-32.089844-7.769531l-134.71875-134.714844c-8.503906-8.503906-11.480468-20.800782-7.761718-32.089844 3.523437-10.722656 7.601562-21.375 12.160156-31.789062l194.199218 194.199218c-10.414062 4.558594-21.066406 8.636719-31.789062 12.164063zm191.648438-119.183594c3.335937 19.324219 5.800781 54.460937-10.730469 87.382813-6.613281 13.164062-24.808594 16.054687-35.203125 5.660156l-23.414063-23.417969c22.992188-18.308594 44.007813-39.136719 62.851563-61.679687 2.191406-2.625 4.367187-5.269532 6.496094-7.945313zm-3.289063-20.375c-18.988281 25.695313-41.058594 49.316406-65.398437 70.011719-23.851563 20.304687-49.53125 37.277344-76.683594 50.652344l-201.957032-201.953126c13.375-27.152343 30.34375-52.824218 50.640626-76.671874 20.808593-24.421876 44.402343-46.507813 70.21875-65.558594 7.949218-5.863282 15.964843-11.308594 24.039062-16.308594l215.59375 215.589844c-5.039062 8.144531-10.535156 16.226562-16.453125 24.238281zm0 0"/></svg>